<svg width="12" height="16" viewBox="0 0 12 16" fill="none" xmlns="http://www.w3.org/2000/svg">
<path fill-rule="evenodd" clip-rule="evenodd" d="M4.99301 2.49956C4.99312 3.07589 4.79411 3.63456 4.42966 4.08101C4.0652 4.52747 3.55769 4.8343 2.99301 4.94956V9.26956C3.14234 9.1829 3.30301 9.11623 3.47501 9.06956C3.73101 9.00056 4.02601 9.00156 4.42401 9.00156H7.49401C7.99101 9.00156 8.14201 8.99756 8.25301 8.96756C8.42253 8.92212 8.57711 8.83287 8.70121 8.70877C8.82531 8.58466 8.91457 8.43008 8.96001 8.26056C8.98239 8.1588 8.99246 8.05472 8.99001 7.95056C8.38298 7.82665 7.84359 7.48177 7.47641 6.98277C7.10922 6.48377 6.9404 5.8662 7.00267 5.2498C7.06493 4.6334 7.35386 4.06207 7.81343 3.64659C8.273 3.23111 8.87047 3.00107 9.49001 3.00107C10.1095 3.00107 10.707 3.23111 11.1666 3.64659C11.6262 4.06207 11.9151 4.6334 11.9773 5.2498C12.0396 5.8662 11.8708 6.48377 11.5036 6.98277C11.1364 7.48177 10.597 7.82665 9.99001 7.95056C9.98501 8.16756 9.97001 8.35056 9.92501 8.51756C9.83479 8.85585 9.65692 9.16434 9.40935 9.41191C9.16179 9.65947 8.85329 9.83734 8.51501 9.92756C8.25901 9.99556 7.96501 9.99556 7.56601 9.99556H4.49601C3.99901 9.99556 3.84801 9.99956 3.73701 10.0296C3.56748 10.075 3.4129 10.1643 3.2888 10.2884C3.1647 10.4125 3.07545 10.567 3.03001 10.7366C3.00762 10.8383 2.99755 10.9424 3.00001 11.0466C3.60703 11.1705 4.14642 11.5154 4.5136 12.0144C4.88079 12.5134 5.04962 13.1309 4.98735 13.7473C4.92508 14.3637 4.63615 14.935 4.17658 15.3505C3.71701 15.766 3.11954 15.9961 2.50001 15.9961C1.88047 15.9961 1.283 15.766 0.823429 15.3505C0.363861 14.935 0.0749344 14.3637 0.0126653 13.7473C-0.0496039 13.1309 0.11922 12.5134 0.486407 12.0144C0.853594 11.5154 1.39298 11.1705 2.00001 11.0466V4.94656C1.53655 4.85196 1.10944 4.62781 0.768282 4.30016C0.427127 3.97251 0.185926 3.55479 0.0726936 3.09553C-0.0405388 2.63627 -0.021156 2.15431 0.128591 1.70562C0.278338 1.25694 0.552304 0.85994 0.918669 0.560741C1.28503 0.261543 1.72876 0.0724212 2.19832 0.015341C2.66788 -0.0417392 3.144 0.0355648 3.57138 0.238275C3.99875 0.440984 4.35986 0.760781 4.61274 1.16052C4.86562 1.56026 4.99991 2.02355 5.00001 2.49656L4.99301 2.49956ZM2.49301 3.99956C2.89096 3.99943 3.27257 3.84121 3.55387 3.55972C3.83518 3.27823 3.99314 2.89652 3.99301 2.49856C3.99287 2.1006 3.83466 1.719 3.55317 1.43769C3.27167 1.15639 2.88996 0.998429 2.49201 0.998562C2.09405 0.998694 1.71244 1.15691 1.43114 1.4384C1.14983 1.71989 0.991873 2.1016 0.992006 2.49956C0.992138 2.89752 1.15035 3.27912 1.43185 3.56043C1.71334 3.84173 2.09505 3.99969 2.49301 3.99956ZM9.49301 6.99956C9.69005 6.9995 9.88516 6.96062 10.0672 6.88515C10.2492 6.80968 10.4146 6.6991 10.5539 6.55972C10.6932 6.42034 10.8036 6.25489 10.879 6.07282C10.9543 5.89074 10.9931 5.69561 10.993 5.49856C10.9929 5.30151 10.9541 5.10641 10.8786 4.92438C10.8031 4.74236 10.6925 4.57698 10.5532 4.43769C10.4138 4.29841 10.2483 4.18794 10.0663 4.11259C9.88419 4.03724 9.68905 3.9985 9.49201 3.99856C9.09405 3.99869 8.71244 4.15691 8.43114 4.4384C8.14983 4.71989 7.99187 5.1016 7.99201 5.49956C7.99214 5.89752 8.15035 6.27912 8.43185 6.56043C8.71334 6.84173 9.09505 6.99969 9.49301 6.99956ZM3.99301 13.4996C3.99294 13.6966 3.95406 13.8917 3.8786 14.0737C3.80313 14.2558 3.69255 14.4211 3.55317 14.5604C3.41379 14.6997 3.24833 14.8102 3.06626 14.8855C2.88419 14.9609 2.68905 14.9996 2.49201 14.9996C2.29496 14.9995 2.09985 14.9606 1.91783 14.8852C1.7358 14.8097 1.57043 14.6991 1.43114 14.5597C1.29185 14.4203 1.18138 14.2549 1.10603 14.0728C1.03069 13.8907 0.99194 13.6956 0.992006 13.4986C0.992138 13.1006 1.15035 12.719 1.43185 12.4377C1.71334 12.1564 2.09505 11.9984 2.49301 11.9986C2.89096 11.9987 3.27257 12.1569 3.55387 12.4384C3.83518 12.7199 3.99314 13.1016 3.99301 13.4996Z" fill="#799A85"/>
</svg>
