<svg width="16" height="11" viewBox="0 0 16 11" fill="none" xmlns="http://www.w3.org/2000/svg">
<path fill-rule="evenodd" clip-rule="evenodd" d="M4.57143 5.28073C4.57143 4.84924 4.65642 4.42198 4.82154 4.02334C4.98666 3.6247 5.22869 3.26248 5.53379 2.95738C5.8389 2.65227 6.20111 2.41025 6.59975 2.24512C6.9984 2.08 7.42566 1.99501 7.85714 1.99501C8.28863 1.99501 8.71589 2.08 9.11453 2.24512C9.51317 2.41025 9.87539 2.65227 10.1805 2.95738C10.4856 3.26248 10.7276 3.6247 10.8927 4.02334C11.0579 4.42198 11.1429 4.84924 11.1429 5.28073V12.1379C11.1429 12.6636 10.8857 13.1276 10.4891 13.4133C10.2011 13.0704 9.76914 12.8522 9.28571 12.8522H6.42857C6.0118 12.8522 5.6121 13.0177 5.3174 13.3124C5.0227 13.6071 4.85714 14.0068 4.85714 14.4236C4.85714 14.8404 5.0227 15.2401 5.3174 15.5348C5.6121 15.8295 6.0118 15.995 6.42857 15.995H9.28571C9.99429 15.995 10.5943 15.5253 10.7897 14.8796C11.3196 14.6433 11.7698 14.2587 12.086 13.7722C12.4022 13.2857 12.5708 12.7181 12.5714 12.1379V10.995H13.8571C14.8834 10.995 15.7143 10.163 15.7143 9.13787V6.85216C15.7143 5.82701 14.8834 4.99501 13.8571 4.99501H13.1349C13.0605 3.64552 12.4721 2.37577 11.4905 1.44675C10.5089 0.51772 9.20868 0 7.85714 0C6.50561 0 5.20542 0.51772 4.22381 1.44675C3.2422 2.37577 2.65376 3.64552 2.57943 4.99501H1.85714C0.832 4.99501 0 5.82701 0 6.85216V9.13787C0 10.163 0.832 10.995 1.85714 10.995H3.85714C4.25143 10.995 4.57143 10.675 4.57143 10.2807V5.28073ZM1.42857 6.85216C1.42857 6.61558 1.62057 6.42358 1.85714 6.42358H3.14286V9.56644H1.85714C1.74348 9.56644 1.63447 9.52129 1.5541 9.44092C1.47372 9.36054 1.42857 9.25153 1.42857 9.13787V6.85216ZM12.5714 9.56644V6.42358H13.8571C14.0937 6.42358 14.2857 6.61558 14.2857 6.85216V9.13787C14.2857 9.25153 14.2406 9.36054 14.1602 9.44092C14.0798 9.52129 13.9708 9.56644 13.8571 9.56644H12.5714Z" fill="#799A85"/>
</svg>
