<svg width="11" height="14" viewBox="0 0 11 14" fill="none" xmlns="http://www.w3.org/2000/svg">
<path d="M5.5 0C4.04184 0.00172024 2.64389 0.581735 1.61282 1.61281C0.581739 2.64389 0.00172369 4.04184 3.45209e-06 5.5C-0.00133722 6.69155 0.387857 7.8507 1.108 8.8C1.108 8.8 1.258 8.9975 1.2825 9.026L5.5 14L9.7195 9.0235C9.7415 8.997 9.892 8.8 9.892 8.8L9.8925 8.7985C10.6122 7.84954 11.0012 6.69098 11 5.5C10.9983 4.04184 10.4183 2.64389 9.38719 1.61281C8.35611 0.581735 6.95817 0.00172024 5.5 0ZM6 8H5V7H6V8ZM6 6H5V5H6V6ZM8 8H7V4H4V8H3V4C3 3.73478 3.10536 3.48043 3.2929 3.29289C3.48043 3.10536 3.73479 3 4 3H7C7.26522 3 7.51957 3.10536 7.70711 3.29289C7.89465 3.48043 8 3.73478 8 4V8Z" fill="#799A85"/>
</svg>
