<svg width="14" height="14" viewBox="0 0 14 14" fill="none" xmlns="http://www.w3.org/2000/svg">
<path d="M3.5 10.1667V7.5M6.83333 10.1667V3.5M10.1667 10.1667V6.16667" stroke="#799A85" stroke-linecap="round"/>
<path d="M0.5 6.83333C0.5 3.848 0.5 2.35467 1.42733 1.42733C2.35467 0.5 3.84733 0.5 6.83333 0.5C9.81867 0.5 11.312 0.5 12.2393 1.42733C13.1667 2.35467 13.1667 3.84733 13.1667 6.83333C13.1667 9.81867 13.1667 11.312 12.2393 12.2393C11.312 13.1667 9.81933 13.1667 6.83333 13.1667C3.848 13.1667 2.35467 13.1667 1.42733 12.2393C0.5 11.312 0.5 9.81933 0.5 6.83333Z" stroke="#799A85" stroke-linejoin="round"/>
</svg>
