<svg width="40" height="40" viewBox="0 0 40 40" fill="none" xmlns="http://www.w3.org/2000/svg">
<path d="M29.9996 10.0002C28.983 10.0002 28.0496 9.41683 27.583 8.51683L26.383 6.10016C25.6163 4.5835 23.6163 3.3335 21.9163 3.3335H18.0996C16.383 3.3335 14.383 4.5835 13.6163 6.10016L12.4163 8.51683C11.9496 9.41683 11.0163 10.0002 9.99963 10.0002C6.38296 10.0002 3.51629 13.0502 3.74963 16.6502L4.61629 30.4168C4.81629 33.8502 6.66629 36.6668 11.2663 36.6668H28.733C33.333 36.6668 35.1663 33.8502 35.383 30.4168L36.2496 16.6502C36.483 13.0502 33.6163 10.0002 29.9996 10.0002ZM17.4996 12.0835H22.4996C23.183 12.0835 23.7496 12.6502 23.7496 13.3335C23.7496 14.0168 23.183 14.5835 22.4996 14.5835H17.4996C16.8163 14.5835 16.2496 14.0168 16.2496 13.3335C16.2496 12.6502 16.8163 12.0835 17.4996 12.0835ZM19.9996 30.2002C16.8996 30.2002 14.3663 27.6835 14.3663 24.5668C14.3663 21.4502 16.883 18.9335 19.9996 18.9335C23.1163 18.9335 25.633 21.4502 25.633 24.5668C25.633 27.6835 23.0996 30.2002 19.9996 30.2002Z" fill="#406550"/>
</svg>
