<svg width="59" height="59" viewBox="0 0 59 59" fill="none" xmlns="http://www.w3.org/2000/svg">
<path d="M29.1667 0C13.0958 0 0 13.0958 0 29.1667C0 45.2375 13.0958 58.3333 29.1667 58.3333C45.2375 58.3333 58.3333 45.2375 58.3333 29.1667C58.3333 13.0958 45.2375 0 29.1667 0ZM43.1083 22.4583L26.5708 38.9958C26.1625 39.4042 25.6083 39.6375 25.025 39.6375C24.4417 39.6375 23.8875 39.4042 23.4792 38.9958L15.225 30.7417C14.3792 29.8958 14.3792 28.4958 15.225 27.65C16.0708 26.8042 17.4708 26.8042 18.3167 27.65L25.025 34.3583L40.0167 19.3667C40.8625 18.5208 42.2625 18.5208 43.1083 19.3667C43.9542 20.2125 43.9542 21.5833 43.1083 22.4583Z" fill="#406550"/>
</svg>
