<svg width="18" height="18" viewBox="0 0 18 18" fill="none" xmlns="http://www.w3.org/2000/svg">
<path d="M6.6827 15.5031C6.5402 15.5031 6.3977 15.4506 6.2852 15.3381C6.0677 15.1206 6.0677 14.7606 6.2852 14.5431L11.1752 9.65313C11.5352 9.29313 11.5352 8.70813 11.1752 8.34812L6.2852 3.45813C6.0677 3.24063 6.0677 2.88063 6.2852 2.66313C6.5027 2.44563 6.86269 2.44563 7.08019 2.66313L11.9702 7.55312C12.3527 7.93562 12.5702 8.45313 12.5702 9.00063C12.5702 9.54813 12.3602 10.0656 11.9702 10.4481L7.08019 15.3381C6.96769 15.4431 6.8252 15.5031 6.6827 15.5031Z" fill="#292D32"/>
</svg>
