<svg width="40" height="40" viewBox="0 0 40 40" fill="none" xmlns="http://www.w3.org/2000/svg">
<path d="M4.30033 31.6833L4.26699 31.7166C3.81699 30.7333 3.53366 29.6166 3.41699 28.3833C3.53366 29.6 3.85033 30.7 4.30033 31.6833Z" fill="#406550"/>
<path d="M14.9999 17.3C17.1906 17.3 18.9665 15.5241 18.9665 13.3334C18.9665 11.1426 17.1906 9.3667 14.9999 9.3667C12.8091 9.3667 11.0332 11.1426 11.0332 13.3334C11.0332 15.5241 12.8091 17.3 14.9999 17.3Z" fill="#406550"/>
<path d="M26.983 3.3335H13.0163C6.94967 3.3335 3.33301 6.95016 3.33301 13.0168V26.9835C3.33301 28.8002 3.64967 30.3835 4.26634 31.7168C5.69967 34.8835 8.76634 36.6668 13.0163 36.6668H26.983C33.0497 36.6668 36.6663 33.0502 36.6663 26.9835V23.1668V13.0168C36.6663 6.95016 33.0497 3.3335 26.983 3.3335ZM33.9497 20.8335C32.6497 19.7168 30.5497 19.7168 29.2497 20.8335L22.3163 26.7835C21.0163 27.9002 18.9163 27.9002 17.6163 26.7835L17.0497 26.3168C15.8663 25.2835 13.983 25.1835 12.6497 26.0835L6.41634 30.2668C6.04967 29.3335 5.83301 28.2502 5.83301 26.9835V13.0168C5.83301 8.31683 8.31634 5.8335 13.0163 5.8335H26.983C31.683 5.8335 34.1663 8.31683 34.1663 13.0168V21.0168L33.9497 20.8335Z" fill="#406550"/>
</svg>
