<svg width="16" height="16" viewBox="0 0 16 16" fill="none" xmlns="http://www.w3.org/2000/svg">
<path d="M8.55883 11.7593C8.71972 11.598 8.80016 11.4007 8.80016 11.1673C8.80016 10.934 8.71972 10.7367 8.55883 10.5753C8.39794 10.414 8.20061 10.3335 7.96683 10.334C7.73305 10.3344 7.53594 10.4151 7.3755 10.576C7.21505 10.7369 7.13439 10.934 7.1335 11.1673C7.13261 11.4007 7.21327 11.598 7.3755 11.7593C7.53772 11.9207 7.73483 12.0011 7.96683 12.0007C8.19883 12.0002 8.39616 11.9202 8.55883 11.7593ZM7.36683 9.43399H8.60016C8.60016 9.06732 8.64194 8.77843 8.7255 8.56732C8.80905 8.35621 9.04505 8.06732 9.4335 7.70065C9.72239 7.41177 9.95016 7.13665 10.1168 6.87532C10.2835 6.61399 10.3668 6.30021 10.3668 5.93399C10.3668 5.31177 10.1391 4.83399 9.6835 4.50065C9.22794 4.16732 8.68905 4.00065 8.06683 4.00065C7.4335 4.00065 6.91972 4.16732 6.5255 4.50065C6.13128 4.83399 5.85616 5.23399 5.70016 5.70065L6.80016 6.13399C6.85572 5.93399 6.98083 5.71732 7.1755 5.48399C7.37016 5.25065 7.66727 5.13399 8.06683 5.13399C8.42239 5.13399 8.68905 5.23132 8.86683 5.42599C9.04461 5.62065 9.1335 5.83443 9.1335 6.06732C9.1335 6.28954 9.06683 6.49799 8.9335 6.69265C8.80016 6.88732 8.6335 7.06777 8.4335 7.23399C7.94461 7.66732 7.64461 7.9951 7.5335 8.21732C7.42239 8.43954 7.36683 8.8451 7.36683 9.43399ZM8.00016 14.6673C7.07794 14.6673 6.21128 14.4924 5.40016 14.1427C4.58905 13.7929 3.8835 13.3178 3.2835 12.7173C2.6835 12.1169 2.20861 11.4113 1.85883 10.6007C1.50905 9.78999 1.33394 8.92332 1.3335 8.00065C1.33305 7.07799 1.50816 6.21132 1.85883 5.40065C2.2095 4.58999 2.68439 3.88443 3.2835 3.28399C3.88261 2.68354 4.58816 2.20865 5.40016 1.85932C6.21216 1.50999 7.07883 1.33488 8.00016 1.33399C8.9215 1.3331 9.78816 1.50821 10.6002 1.85932C11.4122 2.21043 12.1177 2.68532 12.7168 3.28399C13.3159 3.88265 13.7911 4.58821 14.1422 5.40065C14.4933 6.2131 14.6682 7.07976 14.6668 8.00065C14.6655 8.92154 14.4904 9.78821 14.1415 10.6007C13.7926 11.4131 13.3177 12.1187 12.7168 12.7173C12.1159 13.316 11.4104 13.7911 10.6002 14.1427C9.78994 14.4942 8.92327 14.6691 8.00016 14.6673ZM8.00016 13.334C9.48905 13.334 10.7502 12.8173 11.7835 11.784C12.8168 10.7507 13.3335 9.48954 13.3335 8.00065C13.3335 6.51177 12.8168 5.25065 11.7835 4.21732C10.7502 3.18399 9.48905 2.66732 8.00016 2.66732C6.51127 2.66732 5.25016 3.18399 4.21683 4.21732C3.1835 5.25065 2.66683 6.51177 2.66683 8.00065C2.66683 9.48954 3.1835 10.7507 4.21683 11.784C5.25016 12.8173 6.51127 13.334 8.00016 13.334Z" fill="#799A85"/>
</svg>
