<svg width="15" height="15" viewBox="0 0 15 15" fill="none" xmlns="http://www.w3.org/2000/svg">
<path fill-rule="evenodd" clip-rule="evenodd" d="M3.35892 0.166667C4.33425 0.083 5.82758 0 7.99658 0C10.0806 0 11.7406 0.083 12.7173 0.166667C13.8783 0.266 14.7556 1.17667 14.8399 2.328C14.9183 3.39567 14.9999 5.08833 14.9999 7.5C14.9999 9.91167 14.9183 11.6047 14.8399 12.6723C14.7556 13.8237 13.8783 14.7343 12.7173 14.8337C11.7406 14.9173 10.0806 15.0003 7.99658 15.0003C5.82758 15.0003 4.33425 14.9173 3.35892 14.8337C2.19792 14.7343 1.32058 13.8237 1.23625 12.6723L1.23492 12.6547C0.603918 12.6027 0.0285847 12.1563 0.00425137 11.4187L0.00225136 11.381C-0.000958782 11.3462 -0.000735493 11.3111 0.00291801 11.2763L0.00425137 11.248C0.026918 10.56 0.528918 10.1253 1.10858 10.028C1.09728 9.61918 1.08894 9.21028 1.08358 8.80133C0.514585 8.69533 0.026918 8.26367 0.00425137 7.58533L0.00225136 7.54767C-0.000958782 7.51284 -0.000735493 7.47778 0.00291801 7.443L0.00425137 7.41467C0.0265847 6.73633 0.514585 6.30467 1.08358 6.199C1.08936 5.76122 1.0977 5.35233 1.10858 4.97233C0.528918 4.87467 0.026918 4.44033 0.00425137 3.75233L0.00225136 3.71433C-0.000958782 3.67951 -0.000735493 3.64445 0.00291801 3.60967L0.00425137 3.58133C0.0285847 2.84367 0.603918 2.39733 1.23492 2.34533L1.23625 2.328C1.32058 1.17667 2.19792 0.266 3.35892 0.166667ZM3.47292 13.5053C2.99692 13.4647 2.63392 13.1153 2.57225 12.6367C3.14558 12.5343 3.63992 12.1013 3.66258 11.4187L3.66458 11.381C3.66743 11.3493 3.66743 11.3174 3.66458 11.2857V11.2823L3.66392 11.2763L3.66292 11.2577V11.248C3.63825 10.5143 3.06892 10.069 2.44192 10.013C2.43147 9.64456 2.42325 9.24778 2.41725 8.82267C3.05392 8.776 3.63792 8.32867 3.66292 7.58533C3.66292 7.57311 3.66325 7.56378 3.66392 7.55733L3.66425 7.552L3.66492 7.54767C3.66802 7.51283 3.66768 7.47777 3.66392 7.443L3.66292 7.41467C3.63792 6.67133 3.05425 6.224 2.41725 6.17767C2.42325 5.75233 2.43147 5.35556 2.44192 4.98733C3.06892 4.93133 3.63858 4.486 3.66292 3.752L3.66492 3.71433C3.66802 3.6795 3.66768 3.64444 3.66392 3.60967L3.66292 3.58133C3.64025 2.89867 3.14592 2.46567 2.57225 2.36367C2.63425 1.88467 2.99725 1.53567 3.47292 1.495C4.40625 1.415 5.86158 1.33333 7.99625 1.33333C10.0496 1.33333 11.6709 1.415 12.6033 1.495C13.0993 1.53767 13.4726 1.915 13.5099 2.42533C13.5859 3.45867 13.6666 5.11867 13.6666 7.50033C13.6666 9.882 13.5859 11.542 13.5099 12.575C13.4729 13.0853 13.0993 13.4627 12.6033 13.505C11.6709 13.585 10.0493 13.667 7.99658 13.667C5.86158 13.667 4.40658 13.5853 3.47292 13.5053ZM6.15592 5.69667C6.15588 5.33297 6.2474 4.97512 6.42203 4.65609C6.59666 4.33707 6.84879 4.06714 7.15518 3.87118C7.46157 3.67522 7.81236 3.55954 8.17521 3.5348C8.53806 3.51006 8.9013 3.57706 9.23145 3.72962C9.5616 3.88218 9.84804 4.1154 10.0644 4.40777C10.2807 4.70014 10.4199 5.04226 10.4692 5.40259C10.5186 5.76293 10.4764 6.12988 10.3466 6.46963C10.2168 6.80938 10.0036 7.11099 9.72659 7.34667C10.5876 7.756 11.2366 8.52767 11.4636 9.46133C11.5896 9.97933 11.2833 10.4723 10.7733 10.607C10.2819 10.7367 9.49859 10.8633 8.31225 10.8633C7.12625 10.8633 6.34258 10.7367 5.85158 10.6067C5.34158 10.4723 5.03492 9.97933 5.16092 9.46133C5.38925 8.523 6.04358 7.748 6.91125 7.34067C6.67414 7.1374 6.48386 6.88521 6.35347 6.60142C6.22309 6.31763 6.15569 6.00898 6.15592 5.69667Z" fill="#799A85"/>
</svg>
