<svg width="16" height="14" viewBox="0 0 16 14" fill="none" xmlns="http://www.w3.org/2000/svg">
<path d="M3.22852 7.89033V3.91299C3.22843 3.78238 3.2541 3.65303 3.30406 3.53235C3.35403 3.41167 3.4273 3.30203 3.51969 3.2097C3.61208 3.11737 3.72177 3.04417 3.84249 2.99429C3.9632 2.9444 4.09257 2.91882 4.22318 2.91899H5.21718M3.22852 5.90166H4.71985M6.80652 7.89033V3.91299C6.80308 3.78025 6.82626 3.64816 6.87468 3.52452C6.9231 3.40087 6.9958 3.28818 7.08847 3.19307C7.18114 3.09797 7.29192 3.02238 7.41427 2.97078C7.53662 2.91917 7.66806 2.89258 7.80085 2.89258C7.93364 2.89258 8.06508 2.91917 8.18743 2.97078C8.30978 3.02238 8.42056 3.09797 8.51323 3.19307C8.6059 3.28818 8.67859 3.40087 8.72702 3.52452C8.77544 3.64816 8.79862 3.78025 8.79518 3.91299V7.89033M6.80652 5.90166H8.79518M11.7778 7.89033L12.7725 8.88433M12.7725 6.89566C12.776 7.0284 12.7528 7.16049 12.7044 7.28414C12.6559 7.40778 12.5832 7.52048 12.4906 7.61558C12.3979 7.71068 12.2871 7.78627 12.1648 7.83788C12.0424 7.88949 11.911 7.91608 11.7782 7.91608C11.6454 7.91608 11.5139 7.88949 11.3916 7.83788C11.2693 7.78627 11.1585 7.71068 11.0658 7.61558C10.9731 7.52048 10.9004 7.40778 10.852 7.28414C10.8036 7.16049 10.7804 7.0284 10.7838 6.89566V3.91299C10.7804 3.78025 10.8036 3.64816 10.852 3.52452C10.9004 3.40087 10.9731 3.28818 11.0658 3.19307C11.1585 3.09797 11.2693 3.02238 11.3916 2.97078C11.5139 2.91917 11.6454 2.89258 11.7782 2.89258C11.911 2.89258 12.0424 2.91917 12.1648 2.97078C12.2871 3.02238 12.3979 3.09797 12.4906 3.19307C12.5832 3.28818 12.6559 3.40087 12.7044 3.52452C12.7528 3.64816 12.776 3.78025 12.7725 3.91299V6.89566Z" stroke="#799A85" stroke-linecap="round" stroke-linejoin="round"/>
<path d="M14.8 0.5H1.2C1.0141 0.500705 0.836062 0.575048 0.704863 0.706747C0.573663 0.838446 0.499999 1.01677 0.5 1.20267V10.2613C0.499999 10.4472 0.573663 10.6256 0.704863 10.7573C0.836062 10.889 1.0141 10.9633 1.2 10.964H2.82867C2.6818 11.7264 2.36608 12.4462 1.90467 13.0707C3.938 13.1 5.22467 12.3133 5.99667 10.964H14.8C14.9864 10.964 15.1651 10.89 15.2969 10.7582C15.4286 10.6264 15.5027 10.4477 15.5027 10.2613V1.20267C15.5027 1.01631 15.4286 0.837582 15.2969 0.705806C15.1651 0.574031 14.9864 0.5 14.8 0.5Z" stroke="#799A85" stroke-linecap="round" stroke-linejoin="round"/>
</svg>
