<svg width="15" height="12" viewBox="0 0 15 12" fill="none" xmlns="http://www.w3.org/2000/svg">
<path d="M14 0.635742C14.298 0.809647 14.5 1.13284 14.5 1.5V10.5C14.5 11.0489 14.0489 11.5 13.5 11.5H1.5C0.951142 11.5 0.5 11.0489 0.5 10.5L0.507812 1.5C0.507812 1.13218 0.706278 0.811386 1 0.637695V3.27734L1.23535 3.42383L7.23535 7.17383L7.5 7.33984L7.76465 7.17383L13.7646 3.42383L14 3.27734V0.635742ZM1.5 0.5H13.5C13.6685 0.5 13.8279 0.542361 13.9678 0.617188L13.2354 1.07617L7.5 4.66016L1.76465 1.07617L1.0332 0.618164C1.17259 0.542885 1.33154 0.5 1.5 0.5Z" stroke="#EFEDE7"/>
</svg>
