<svg width="70" height="70" viewBox="0 0 70 70" fill="none" xmlns="http://www.w3.org/2000/svg">
<path d="M55.7664 26.6005C54.6289 26.6005 53.7247 27.5046 53.7247 28.6421V33.2505C53.7247 43.5755 45.3247 51.9755 34.9997 51.9755C24.6747 51.9755 16.2747 43.5755 16.2747 33.2505V28.613C16.2747 27.4755 15.3706 26.5713 14.2331 26.5713C13.0956 26.5713 12.1914 27.4755 12.1914 28.613V33.2213C12.1914 45.0921 21.3206 54.863 32.9581 55.913V62.1255C32.9581 63.263 33.8622 64.1671 34.9997 64.1671C36.1372 64.1671 37.0414 63.263 37.0414 62.1255V55.913C48.6497 54.8921 57.8081 45.0921 57.8081 33.2213V28.613C57.7789 27.5046 56.8747 26.6005 55.7664 26.6005Z" fill="#EFEDE7"/>
<path d="M35.0001 5.83301C27.8834 5.83301 22.1084 11.608 22.1084 18.7247V33.658C22.1084 40.7747 27.8834 46.5497 35.0001 46.5497C42.1167 46.5497 47.8917 40.7747 47.8917 33.658V18.7247C47.8917 11.608 42.1167 5.83301 35.0001 5.83301ZM38.8209 26.1038C38.6167 26.8622 37.9459 27.358 37.1876 27.358C37.0417 27.358 36.8959 27.3288 36.7501 27.2997C35.6126 26.9788 34.4167 26.9788 33.2792 27.2997C32.3459 27.5622 31.4417 27.008 31.2084 26.1038C30.9459 25.1997 31.5001 24.2663 32.4042 24.033C34.1251 23.5663 35.9334 23.5663 37.6542 24.033C38.5292 24.2663 39.0542 25.1997 38.8209 26.1038ZM40.3667 20.4455C40.1042 21.1455 39.4626 21.5538 38.7626 21.5538C38.5584 21.5538 38.3834 21.5247 38.1792 21.4663C36.1376 20.708 33.8626 20.708 31.8209 21.4663C30.9459 21.7872 29.9542 21.3205 29.6334 20.4455C29.3126 19.5705 29.7792 18.5788 30.6542 18.2872C33.4542 17.2663 36.5459 17.2663 39.3459 18.2872C40.2209 18.608 40.6876 19.5705 40.3667 20.4455Z" fill="#EFEDE7"/>
</svg>
