<svg width="16" height="16" viewBox="0 0 16 16" fill="none" xmlns="http://www.w3.org/2000/svg">
<path d="M8.47517 11.1423C8.60273 11.0143 8.6665 10.8558 8.6665 10.6669V8.00026C8.6665 7.81137 8.6025 7.65315 8.4745 7.52559C8.3465 7.39804 8.18828 7.33404 7.99984 7.33359C7.81139 7.33315 7.65317 7.39715 7.52517 7.52559C7.39717 7.65404 7.33317 7.81226 7.33317 8.00026V10.6669C7.33317 10.8558 7.39717 11.0143 7.52517 11.1423C7.65317 11.2703 7.81139 11.334 7.99984 11.3336C8.18828 11.3331 8.34673 11.2698 8.47517 11.1423ZM8.47517 5.80826C8.60273 5.68071 8.6665 5.52248 8.6665 5.33359C8.6665 5.1447 8.6025 4.98648 8.4745 4.85893C8.3465 4.73137 8.18828 4.66737 7.99984 4.66693C7.81139 4.66648 7.65317 4.73048 7.52517 4.85893C7.39717 4.98737 7.33317 5.14559 7.33317 5.33359C7.33317 5.52159 7.39717 5.68004 7.52517 5.80893C7.65317 5.93782 7.81139 6.00159 7.99984 6.00026C8.18828 5.99893 8.34673 5.93493 8.47517 5.80826ZM7.78317 14.5836C7.7165 14.5725 7.64984 14.5558 7.58317 14.5336C6.08317 14.0336 4.88873 13.1085 3.99984 11.7583C3.11095 10.408 2.6665 8.95537 2.6665 7.40026V4.25026C2.6665 3.97248 2.74717 3.72248 2.9085 3.50026C3.06984 3.27804 3.27806 3.11693 3.53317 3.01693L7.53317 1.51693C7.68873 1.46137 7.84428 1.43359 7.99984 1.43359C8.15539 1.43359 8.31095 1.46137 8.4665 1.51693L12.4665 3.01693C12.7221 3.11693 12.9305 3.27804 13.0918 3.50026C13.2532 3.72248 13.3336 3.97248 13.3332 4.25026V7.40026C13.3332 8.95582 12.8887 10.4087 11.9998 11.7589C11.1109 13.1091 9.9165 14.034 8.4165 14.5336C8.34984 14.5558 8.28317 14.5725 8.2165 14.5836C8.14984 14.5947 8.07762 14.6003 7.99984 14.6003C7.92206 14.6003 7.84984 14.5947 7.78317 14.5836ZM7.99984 13.2669C9.15539 12.9003 10.1109 12.1669 10.8665 11.0669C11.6221 9.96693 11.9998 8.74471 11.9998 7.40026V4.25026L7.99984 2.75026L3.99984 4.25026V7.40026C3.99984 8.74471 4.37761 9.96693 5.13317 11.0669C5.88873 12.1669 6.84428 12.9003 7.99984 13.2669Z" fill="#799A85"/>
</svg>
