<svg width="40" height="40" viewBox="0 0 40 40" fill="none" xmlns="http://www.w3.org/2000/svg">
<path d="M20.0003 28.3327C19.1163 28.3327 18.2684 27.9815 17.6433 27.3564C17.0182 26.7312 16.667 25.8834 16.667 24.9993C16.667 23.1493 18.1503 21.666 20.0003 21.666C20.8844 21.666 21.7322 22.0172 22.3573 22.6423C22.9825 23.2674 23.3337 24.1153 23.3337 24.9993C23.3337 25.8834 22.9825 26.7312 22.3573 27.3564C21.7322 27.9815 20.8844 28.3327 20.0003 28.3327ZM30.0003 33.3327V16.666H10.0003V33.3327H30.0003ZM30.0003 13.3327C30.8844 13.3327 31.7322 13.6839 32.3573 14.309C32.9825 14.9341 33.3337 15.782 33.3337 16.666V33.3327C33.3337 34.2167 32.9825 35.0646 32.3573 35.6897C31.7322 36.3148 30.8844 36.666 30.0003 36.666H10.0003C9.11627 36.666 8.26842 36.3148 7.6433 35.6897C7.01818 35.0646 6.66699 34.2167 6.66699 33.3327V16.666C6.66699 14.816 8.15033 13.3327 10.0003 13.3327H11.667V9.99935C11.667 7.78921 12.545 5.6696 14.1078 4.10679C15.6706 2.54399 17.7902 1.66602 20.0003 1.66602C21.0947 1.66602 22.1783 1.88156 23.1894 2.30035C24.2004 2.71914 25.1191 3.33297 25.8929 4.10679C26.6667 4.88061 27.2805 5.79927 27.6993 6.81032C28.1181 7.82137 28.3337 8.905 28.3337 9.99935V13.3327H30.0003ZM20.0003 4.99935C18.6742 4.99935 17.4025 5.52613 16.4648 6.46382C15.5271 7.4015 15.0003 8.67327 15.0003 9.99935V13.3327H25.0003V9.99935C25.0003 8.67327 24.4735 7.4015 23.5359 6.46382C22.5982 5.52613 21.3264 4.99935 20.0003 4.99935Z" fill="black"/>
</svg>
