<svg width="40" height="40" viewBox="0 0 40 40" fill="none" xmlns="http://www.w3.org/2000/svg">
<path d="M20.0003 5.00018L20.657 3.46685C20.4495 3.3779 20.2261 3.33203 20.0003 3.33203C19.7746 3.33203 19.5512 3.3779 19.3437 3.46685L20.0003 5.00018ZM20.0003 35.0002L19.1737 36.4468C19.4254 36.5907 19.7104 36.6663 20.0003 36.6663C20.2903 36.6663 20.5752 36.5907 20.827 36.4468L20.0003 35.0002ZM19.3437 3.46851L8.68699 8.03351L10.0003 11.1002L20.657 6.53351L19.3437 3.46851ZM6.66699 11.0985V22.5318H10.0003V11.0985H6.66699ZM12.5453 32.6602L19.1737 36.4468L20.827 33.5535L14.1987 29.7652L12.5453 32.6602ZM20.827 36.4468L27.4553 32.6602L25.802 29.7652L19.1737 33.5535L20.827 36.4468ZM33.3337 22.5302V11.1002H30.0003V22.5335L33.3337 22.5302ZM31.3137 8.03518L20.657 3.46851L19.3437 6.53185L30.0003 11.1002L31.3137 8.03518ZM33.3337 11.1002C33.3336 10.4479 33.1422 9.81006 32.7831 9.26555C32.4241 8.72104 31.9131 8.29216 31.3137 8.03518L30.0003 11.1002H33.3337ZM27.4553 32.6602C29.2414 31.6396 30.7258 30.1665 31.7582 28.3872C32.7905 26.6079 33.334 24.5873 33.3337 22.5302H30.0003C30.0001 23.9993 29.6116 25.4423 28.874 26.7129C28.1364 27.9835 27.076 29.0365 25.8003 29.7652L27.4553 32.6602ZM6.66699 22.5302C6.6669 24.587 7.21057 26.6073 8.2429 28.3863C9.27522 30.1653 10.7595 31.6397 12.5453 32.6602L14.1987 29.7652C12.9238 29.0366 11.864 27.984 11.1268 26.7141C10.3895 25.4441 10.0009 24.0019 10.0003 22.5335L6.66699 22.5302ZM8.68699 8.03351C8.08725 8.29061 7.57616 8.71974 7.21708 9.26458C6.85801 9.80941 6.66674 10.4477 6.66699 11.1002H10.0003L8.68699 8.03351Z" fill="black"/>
<path d="M25 16.666L18.3333 23.3327L15 19.9993" stroke="black" stroke-width="2" stroke-linecap="round" stroke-linejoin="round"/>
</svg>
