<svg width="40" height="40" viewBox="0 0 40 40" fill="none" xmlns="http://www.w3.org/2000/svg">
<path d="M28.4316 25.87C29.1829 25.3568 30.06 25.0584 30.9684 25.0069C31.8768 24.9554 32.782 25.1527 33.5866 25.5776C34.3911 26.0025 35.0645 26.6389 35.5341 27.4182C36.0037 28.1975 36.2518 29.0901 36.2516 30C36.2516 30.1344 36.246 30.2683 36.2349 30.4017C34.2351 31.1003 32.1112 31.3722 29.9999 31.2C29.9935 29.311 29.4495 27.4612 28.4316 25.87ZM29.9982 31.1983L29.9999 31.25C29.9999 31.6244 29.9793 31.9944 29.9382 32.36C26.9139 34.0955 23.4868 35.0059 19.9999 35C16.3832 35 12.9882 34.04 10.0616 32.36C10.0185 31.9743 9.99789 31.5864 9.99989 31.1983C10.0058 29.3095 10.5525 27.4614 11.5699 25.87C12.4738 24.4537 13.72 23.2881 15.1933 22.4806C16.6667 21.6731 18.3198 21.2499 19.9999 21.25C21.6803 21.2496 23.3337 21.6727 24.8074 22.4802C26.2811 23.2877 27.5275 24.4535 28.4316 25.87M9.99989 31.1983C7.88929 31.3764 5.76657 31.1055 3.76823 30.4033C3.69215 29.4626 3.88388 28.5195 4.32127 27.6832C4.75866 26.8468 5.42384 26.1513 6.2399 25.6771C7.05595 25.203 7.98955 24.9694 8.93276 25.0036C9.87596 25.0377 10.7902 25.3381 11.5699 25.87M24.9999 11.25C24.9999 12.5761 24.4731 13.8479 23.5354 14.7855C22.5977 15.7232 21.326 16.25 19.9999 16.25C18.6738 16.25 17.402 15.7232 16.4644 14.7855C15.5267 13.8479 14.9999 12.5761 14.9999 11.25C14.9999 9.92392 15.5267 8.65215 16.4644 7.71447C17.402 6.77678 18.6738 6.25 19.9999 6.25C21.326 6.25 22.5977 6.77678 23.5354 7.71447C24.4731 8.65215 24.9999 9.92392 24.9999 11.25ZM34.9999 16.25C34.9999 16.7425 34.9029 17.2301 34.7144 17.6851C34.526 18.14 34.2498 18.5534 33.9015 18.9016C33.5533 19.2499 33.1399 19.5261 32.685 19.7145C32.23 19.903 31.7424 20 31.2499 20C30.7574 20 30.2698 19.903 29.8148 19.7145C29.3599 19.5261 28.9465 19.2499 28.5982 18.9016C28.25 18.5534 27.9738 18.14 27.7853 17.6851C27.5969 17.2301 27.4999 16.7425 27.4999 16.25C27.4999 15.2554 27.895 14.3016 28.5982 13.5983C29.3015 12.8951 30.2553 12.5 31.2499 12.5C32.2445 12.5 33.1983 12.8951 33.9015 13.5983C34.6048 14.3016 34.9999 15.2554 34.9999 16.25ZM12.4999 16.25C12.4999 16.7425 12.4029 17.2301 12.2144 17.6851C12.026 18.14 11.7498 18.5534 11.4015 18.9016C11.0533 19.2499 10.6399 19.5261 10.185 19.7145C9.72999 19.903 9.24235 20 8.74989 20C8.25744 20 7.7698 19.903 7.31483 19.7145C6.85986 19.5261 6.44646 19.2499 6.09824 18.9016C5.75002 18.5534 5.4738 18.14 5.28535 17.6851C5.09689 17.2301 4.99989 16.7425 4.99989 16.25C4.99989 15.2554 5.39498 14.3016 6.09824 13.5983C6.8015 12.8951 7.75533 12.5 8.74989 12.5C9.74446 12.5 10.6983 12.8951 11.4015 13.5983C12.1048 14.3016 12.4999 15.2554 12.4999 16.25Z" stroke="black" stroke-width="2.5" stroke-linecap="round" stroke-linejoin="round"/>
</svg>
