<svg width="24" height="24" viewBox="0 0 24 24" fill="none" xmlns="http://www.w3.org/2000/svg">
<path d="M20 5H16.83L15 3H9L7.17 5H4C3.46957 5 2.96086 5.21071 2.58579 5.58579C2.21071 5.96086 2 6.46957 2 7V19C2 19.5304 2.21071 20.0391 2.58579 20.4142C2.96086 20.7893 3.46957 21 4 21H20C20.5304 21 21.0391 20.7893 21.4142 20.4142C21.7893 20.0391 22 19.5304 22 19V7C22 6.46957 21.7893 5.96086 21.4142 5.58579C21.0391 5.21071 20.5304 5 20 5ZM20 19H4V7H8.05L9.88 5H14.12L16 7H20V19ZM12 18C10.92 18 9.86 17.65 9 17L10.44 15.56C10.91 15.85 11.45 16 12 16C12.7956 16 13.5587 15.6839 14.1213 15.1213C14.6839 14.5587 15 13.7956 15 13C15 12.2044 14.6839 11.4413 14.1213 10.8787C13.5587 10.3161 12.7956 10 12 10C10.74 10 9.6 10.8 9.18 12H11L8 15L5 12H7.1C7.23084 11.3563 7.48731 10.7447 7.85475 10.2001C8.22219 9.65564 8.69338 9.18892 9.24137 8.82669C9.78936 8.46446 10.4034 8.21382 11.0483 8.08913C11.6933 7.96444 12.3565 7.96813 13 8.1C14.2152 8.34674 15.2953 9.0362 16.0307 10.0345C16.7661 11.0329 17.1043 12.2688 16.9797 13.5025C16.8551 14.7362 16.2765 15.8795 15.3563 16.7106C14.4361 17.5417 13.24 18.0012 12 18Z" fill="#EFEDE7"/>
</svg>
