<svg width="16" height="16" viewBox="0 0 16 16" fill="none" xmlns="http://www.w3.org/2000/svg">
<path d="M6.16647 14.6673L5.8998 12.534C5.75536 12.4784 5.61936 12.4118 5.4918 12.334C5.36425 12.2562 5.23914 12.1729 5.11647 12.084L3.13314 12.9173L1.2998 9.75065L3.01647 8.45065C3.00536 8.37287 2.9998 8.29798 2.9998 8.22598V7.77598C2.9998 7.70354 3.00536 7.62843 3.01647 7.55065L1.2998 6.25065L3.13314 3.08398L5.11647 3.91732C5.23869 3.82843 5.36647 3.7451 5.4998 3.66732C5.63314 3.58954 5.76647 3.52287 5.8998 3.46732L6.16647 1.33398H9.83314L10.0998 3.46732C10.2442 3.52287 10.3805 3.58954 10.5085 3.66732C10.6365 3.7451 10.7614 3.82843 10.8831 3.91732L12.8665 3.08398L14.6998 6.25065L12.9831 7.55065C12.9942 7.62843 12.9998 7.70354 12.9998 7.77598V8.22532C12.9998 8.29776 12.9887 8.37287 12.9665 8.45065L14.6831 9.75065L12.8498 12.9173L10.8831 12.084C10.7609 12.1729 10.6331 12.2562 10.4998 12.334C10.3665 12.4118 10.2331 12.4784 10.0998 12.534L9.83314 14.6673H6.16647ZM7.33314 13.334H8.6498L8.88314 11.5673C9.22758 11.4784 9.54714 11.348 9.8418 11.176C10.1365 11.004 10.4058 10.7955 10.6498 10.5507L12.2998 11.234L12.9498 10.1006L11.5165 9.01732C11.572 8.86176 11.6109 8.69798 11.6331 8.52598C11.6554 8.35398 11.6665 8.17887 11.6665 8.00065C11.6665 7.82243 11.6554 7.64754 11.6331 7.47598C11.6109 7.30443 11.572 7.14043 11.5165 6.98398L12.9498 5.90065L12.2998 4.76732L10.6498 5.46732C10.4054 5.21176 10.136 4.99798 9.8418 4.82598C9.54758 4.65398 9.22803 4.52332 8.88314 4.43398L8.66647 2.66732H7.3498L7.11647 4.43398C6.77203 4.52287 6.45269 4.65354 6.15847 4.82598C5.86425 4.99843 5.59469 5.20665 5.3498 5.45065L3.6998 4.76732L3.0498 5.90065L4.48314 6.96732C4.42758 7.13398 4.38869 7.30065 4.36647 7.46732C4.34425 7.63398 4.33314 7.81176 4.33314 8.00065C4.33314 8.17843 4.34425 8.35065 4.36647 8.51732C4.38869 8.68398 4.42758 8.85065 4.48314 9.01732L3.0498 10.1006L3.6998 11.234L5.3498 10.534C5.59425 10.7895 5.8638 11.0035 6.15847 11.176C6.45314 11.3484 6.77247 11.4789 7.11647 11.5673L7.33314 13.334ZM8.03314 10.334C8.67758 10.334 9.22758 10.1062 9.68314 9.65065C10.1387 9.1951 10.3665 8.64509 10.3665 8.00065C10.3665 7.35621 10.1387 6.80621 9.68314 6.35065C9.22758 5.89509 8.67758 5.66732 8.03314 5.66732C7.37758 5.66732 6.82469 5.89509 6.37447 6.35065C5.92425 6.80621 5.69936 7.35621 5.6998 8.00065C5.70025 8.64509 5.92536 9.1951 6.37514 9.65065C6.82492 10.1062 7.37758 10.334 8.03314 10.334Z" fill="#799A85"/>
</svg>
