<svg width="12" height="12" viewBox="0 0 12 12" fill="none" xmlns="http://www.w3.org/2000/svg">
<path d="M8.5 11C8.08333 11 7.72917 10.8542 7.4375 10.5625C7.14583 10.2708 7 9.91667 7 9.5C7 9.45 7.0125 9.33333 7.0375 9.15L3.525 7.1C3.39167 7.225 3.2375 7.323 3.0625 7.394C2.8875 7.465 2.7 7.50033 2.5 7.5C2.08333 7.5 1.72917 7.35417 1.4375 7.0625C1.14583 6.77083 1 6.41667 1 6C1 5.58333 1.14583 5.22917 1.4375 4.9375C1.72917 4.64583 2.08333 4.5 2.5 4.5C2.7 4.5 2.8875 4.5355 3.0625 4.6065C3.2375 4.6775 3.39167 4.77533 3.525 4.9L7.0375 2.85C7.02083 2.79167 7.0105 2.7355 7.0065 2.6815C7.0025 2.6275 7.00033 2.567 7 2.5C7 2.08333 7.14583 1.72917 7.4375 1.4375C7.72917 1.14583 8.08333 1 8.5 1C8.91667 1 9.27083 1.14583 9.5625 1.4375C9.85417 1.72917 10 2.08333 10 2.5C10 2.91667 9.85417 3.27083 9.5625 3.5625C9.27083 3.85417 8.91667 4 8.5 4C8.3 4 8.1125 3.9645 7.9375 3.8935C7.7625 3.8225 7.60833 3.72467 7.475 3.6L3.9625 5.65C3.97917 5.70833 3.98967 5.76467 3.994 5.819C3.99833 5.87333 4.00033 5.93367 4 6C3.99967 6.06633 3.99767 6.12683 3.994 6.1815C3.99033 6.23617 3.97983 6.29233 3.9625 6.35L7.475 8.4C7.60833 8.275 7.7625 8.17717 7.9375 8.1065C8.1125 8.03583 8.3 8.00033 8.5 8C8.91667 8 9.27083 8.14583 9.5625 8.4375C9.85417 8.72917 10 9.08333 10 9.5C10 9.91667 9.85417 10.2708 9.5625 10.5625C9.27083 10.8542 8.91667 11 8.5 11ZM8.5 10C8.64167 10 8.7605 9.95217 8.8565 9.8565C8.9525 9.76083 9.00033 9.642 9 9.5C8.99967 9.358 8.95167 9.23933 8.856 9.144C8.76033 9.04867 8.64167 9.00067 8.5 9C8.35833 8.99933 8.23967 9.04733 8.144 9.144C8.04833 9.24067 8.00033 9.35933 8 9.5C7.99967 9.64067 8.04767 9.7595 8.144 9.8565C8.24033 9.9535 8.359 10.0013 8.5 10ZM2.5 6.5C2.64167 6.5 2.7605 6.452 2.8565 6.356C2.9525 6.26 3.00033 6.14133 3 6C2.99967 5.85867 2.95167 5.74 2.856 5.644C2.76033 5.548 2.64167 5.5 2.5 5.5C2.35833 5.5 2.23967 5.548 2.144 5.644C2.04833 5.74 2.00033 5.85867 2 6C1.99967 6.14133 2.04767 6.26017 2.144 6.3565C2.24033 6.45283 2.359 6.50067 2.5 6.5ZM8.8565 2.856C8.95217 2.76067 9 2.642 9 2.5C9 2.358 8.952 2.23933 8.856 2.144C8.76 2.04867 8.64133 2.00067 8.5 2C8.35867 1.99933 8.24 2.04733 8.144 2.144C8.048 2.24067 8 2.35933 8 2.5C8 2.64067 8.048 2.7595 8.144 2.8565C8.24 2.9535 8.35867 3.00133 8.5 3C8.64133 2.99867 8.76017 2.95067 8.8565 2.856Z" fill="#406550"/>
</svg>
