<svg width="21" height="24" viewBox="0 0 21 24" fill="none" xmlns="http://www.w3.org/2000/svg">
<path d="M19.8448 9.25H18.3448M2.84479 9.25H4.34479M11.3448 0.75V2.25M5.33429 3.24L6.39429 4.301M17.3548 3.24L16.2938 4.301M12.0003 5.9635C7.59079 9.8125 2.84329 14.6535 1.15679 16.3985C0.761788 16.807 0.635788 17.4025 0.863288 17.9225C0.987288 18.205 1.13379 18.5135 1.28529 18.776C1.43679 19.0385 1.63079 19.3195 1.81379 19.568C2.14979 20.0255 2.72879 20.2135 3.27979 20.076C5.63429 19.4875 12.2008 17.797 17.7388 15.903" stroke="#EFEDE7" stroke-width="1.5" stroke-linecap="round" stroke-linejoin="round"/>
<path d="M9.40062 8.3463C9.40062 8.3463 10.4461 9.3923 12.2186 12.4623C13.9911 15.5323 14.3741 16.9608 14.3741 16.9608M9.94262 18.4283L10.2396 19.5373C10.3176 19.8285 10.3375 20.1322 10.2981 20.4311C10.2588 20.73 10.1609 21.0182 10.0101 21.2793C9.85939 21.5404 9.65869 21.7692 9.4195 21.9527C9.18031 22.1362 8.90732 22.2708 8.61612 22.3488C8.32491 22.4268 8.02119 22.4467 7.7223 22.4073C7.42341 22.3679 7.1352 22.2701 6.87413 22.1193C6.61306 21.9686 6.38424 21.7679 6.20073 21.5287C6.01722 21.2895 5.88262 21.0165 5.80462 20.7253L5.55762 19.8013M11.6176 5.2998C11.6176 5.2998 12.8161 6.6103 15.2006 10.7408C17.5851 14.8713 18.1211 16.5643 18.1211 16.5643" stroke="#EFEDE7" stroke-width="1.5" stroke-linecap="round" stroke-linejoin="round"/>
</svg>
