<svg width="45" height="45" viewBox="0 0 45 45" fill="none" xmlns="http://www.w3.org/2000/svg">
<circle cx="22.5" cy="22.5" r="22.5" fill="#406550"/>
<path d="M23 21C24.3261 21 25.5979 21.5268 26.5355 22.4645C27.4732 23.4021 28 24.6739 28 26V32H26V26C26 25.2348 25.7077 24.4985 25.1827 23.9417C24.6578 23.385 23.9399 23.0499 23.176 23.005L23 23C22.2348 23 21.4985 23.2923 20.9417 23.8173C20.385 24.3422 20.0499 25.0601 20.005 25.824L20 26V32H18V26C18 24.6739 18.5268 23.4021 19.4645 22.4645C20.4021 21.5268 21.6739 21 23 21ZM16.5 24C16.78 24.0007 17.05 24.032 17.31 24.094C17.1396 24.6032 17.0384 25.1329 17.009 25.669L17 26V26.086C16.885 26.0449 16.7655 26.0181 16.644 26.006L16.5 26C16.1273 26 15.7679 26.1388 15.4919 26.3892C15.2159 26.6397 15.043 26.984 15.007 27.355L15 27.5V32H13V27.5C13 26.5717 13.3687 25.6815 14.0251 25.0251C14.6815 24.3687 15.5717 24 16.5 24ZM29.5 24C30.4283 24 31.3185 24.3687 31.9749 25.0251C32.6313 25.6815 33 26.5717 33 27.5V32H31V27.5C31 27.1273 30.8612 26.7679 30.6108 26.4919C30.3603 26.2159 30.016 26.043 29.645 26.007L29.5 26C29.324 26.0007 29.1573 26.029 29 26.085V26C29 25.334 28.892 24.694 28.692 24.096C28.95 24.033 29.222 24 29.5 24ZM16.5 18C17.163 18 17.7989 18.2634 18.2678 18.7322C18.7366 19.2011 19 19.837 19 20.5C19 21.163 18.7366 21.7989 18.2678 22.2678C17.7989 22.7366 17.163 23 16.5 23C15.837 23 15.2011 22.7366 14.7322 22.2678C14.2634 21.7989 14 21.163 14 20.5C14 19.837 14.2634 19.2011 14.7322 18.7322C15.2011 18.2634 15.837 18 16.5 18ZM29.5 18C30.163 18 30.7989 18.2634 31.2678 18.7322C31.7366 19.2011 32 19.837 32 20.5C32 21.163 31.7366 21.7989 31.2678 22.2678C30.7989 22.7366 30.163 23 29.5 23C28.837 23 28.2011 22.7366 27.7322 22.2678C27.2634 21.7989 27 21.163 27 20.5C27 19.837 27.2634 19.2011 27.7322 18.7322C28.2011 18.2634 28.837 18 29.5 18ZM16.5 20C16.3674 20 16.2402 20.0527 16.1464 20.1464C16.0527 20.2402 16 20.3674 16 20.5C16 20.6326 16.0527 20.7598 16.1464 20.8536C16.2402 20.9473 16.3674 21 16.5 21C16.6326 21 16.7598 20.9473 16.8536 20.8536C16.9473 20.7598 17 20.6326 17 20.5C17 20.3674 16.9473 20.2402 16.8536 20.1464C16.7598 20.0527 16.6326 20 16.5 20ZM29.5 20C29.3674 20 29.2402 20.0527 29.1464 20.1464C29.0527 20.2402 29 20.3674 29 20.5C29 20.6326 29.0527 20.7598 29.1464 20.8536C29.2402 20.9473 29.3674 21 29.5 21C29.6326 21 29.7598 20.9473 29.8536 20.8536C29.9473 20.7598 30 20.6326 30 20.5C30 20.3674 29.9473 20.2402 29.8536 20.1464C29.7598 20.0527 29.6326 20 29.5 20ZM23 12C24.0609 12 25.0783 12.4214 25.8284 13.1716C26.5786 13.9217 27 14.9391 27 16C27 17.0609 26.5786 18.0783 25.8284 18.8284C25.0783 19.5786 24.0609 20 23 20C21.9391 20 20.9217 19.5786 20.1716 18.8284C19.4214 18.0783 19 17.0609 19 16C19 14.9391 19.4214 13.9217 20.1716 13.1716C20.9217 12.4214 21.9391 12 23 12ZM23 14C22.4696 14 21.9609 14.2107 21.5858 14.5858C21.2107 14.9609 21 15.4696 21 16C21 16.5304 21.2107 17.0391 21.5858 17.4142C21.9609 17.7893 22.4696 18 23 18C23.5304 18 24.0391 17.7893 24.4142 17.4142C24.7893 17.0391 25 16.5304 25 16C25 15.4696 24.7893 14.9609 24.4142 14.5858C24.0391 14.2107 23.5304 14 23 14Z" fill="#EFEDE7"/>
</svg>
