<svg width="18" height="18" viewBox="0 0 18 18" fill="none" xmlns="http://www.w3.org/2000/svg">
<path d="M6.21729 4.7175C5.90229 4.7175 5.65479 4.4625 5.65479 4.155V2.0625C5.65479 1.755 5.90229 1.5 6.21729 1.5C6.53229 1.5 6.77979 1.755 6.77979 2.0625V4.1475C6.77979 4.4625 6.53229 4.7175 6.21729 4.7175Z" fill="#6FA36A"/>
<path d="M11.7827 4.7175C11.4677 4.7175 11.2202 4.4625 11.2202 4.155V2.0625C11.2202 1.7475 11.4752 1.5 11.7827 1.5C12.0977 1.5 12.3452 1.755 12.3452 2.0625V4.1475C12.3452 4.4625 12.0977 4.7175 11.7827 4.7175Z" fill="#6FA36A"/>
<path d="M14.6775 3.375C14.1825 3.0075 13.47 3.36 13.47 3.9825V4.0575C13.47 4.935 12.84 5.745 11.9625 5.835C10.95 5.94 10.095 5.145 10.095 4.155V3.375C10.095 2.9625 9.7575 2.625 9.345 2.625H8.655C8.2425 2.625 7.905 2.9625 7.905 3.375V4.155C7.905 4.7475 7.5975 5.2725 7.1325 5.565C7.065 5.61 6.99 5.6475 6.915 5.685C6.8475 5.7225 6.7725 5.7525 6.69 5.775C6.6 5.805 6.5025 5.8275 6.3975 5.835C6.2775 5.85 6.1575 5.85 6.0375 5.835C5.9325 5.8275 5.835 5.805 5.745 5.775C5.67 5.7525 5.595 5.7225 5.52 5.685C5.445 5.6475 5.37 5.61 5.3025 5.565C4.83 5.235 4.53 4.665 4.53 4.0575V3.9825C4.53 3.405 3.915 3.06 3.4275 3.3075C3.42 3.315 3.4125 3.315 3.405 3.3225C3.375 3.3375 3.3525 3.3525 3.3225 3.375C3.3 3.3975 3.27 3.4125 3.2475 3.435C3.0375 3.6 2.85 3.7875 2.6925 3.99C2.61 4.08 2.5425 4.1775 2.4825 4.275C2.475 4.2825 2.4675 4.29 2.46 4.305C2.3925 4.4025 2.3325 4.515 2.28 4.62C2.265 4.635 2.2575 4.6425 2.2575 4.6575C2.2125 4.7475 2.1675 4.8375 2.1375 4.935C2.115 4.9725 2.1075 5.0025 2.0925 5.04C2.0475 5.1525 2.0175 5.265 1.9875 5.3775C1.9575 5.4825 1.935 5.595 1.92 5.7075C1.905 5.79 1.8975 5.8725 1.89 5.9625C1.8825 6.0675 1.875 6.1725 1.875 6.2775V12.8475C1.875 14.865 3.51 16.5 5.5275 16.5H12.4725C14.49 16.5 16.125 14.865 16.125 12.8475V6.2775C16.125 5.085 15.555 4.0425 14.6775 3.375ZM9 13.065H5.52C5.2125 13.065 4.9575 12.81 4.9575 12.5025C4.9575 12.1875 5.2125 11.9325 5.52 11.9325H9C9.315 11.9325 9.5625 12.1875 9.5625 12.5025C9.5625 12.81 9.315 13.065 9 13.065ZM11.085 10.2825H5.52C5.2125 10.2825 4.9575 10.0275 4.9575 9.72C4.9575 9.405 5.2125 9.15 5.52 9.15H11.085C11.4 9.15 11.655 9.405 11.655 9.72C11.655 10.0275 11.4 10.2825 11.085 10.2825Z" fill="#6FA36A"/>
</svg>
